<svg xmlns="http://www.w3.org/2000/svg" width="400" height="400" viewBox="0 0 0 0 400 400"><g fill-rule="evenodd"><path d="M284.113 42.043c-12.989 2.878-28.979 15.749-43.841 35.289-11.465 15.075-9.722 14.121-21.145 11.556-4.714-1.058-8.905-1.989-9.312-2.068-.408-.08-2.035-.408-3.617-.73a180.514 180.514 0 0 0-3.889-.756c-.557-.093-3.263-.574-6.013-1.068-12.273-2.207-29.32-4.61-44.629-6.292-44.702-4.909-77.315-.733-91.494 11.716-1.807 1.587-2.161 1.301 7.512 6.072 55.946 27.591 102.277 42.468 119.454 38.358l2.88-.689-.233.784c-2.514 8.461-21.655 26.446-44.332 41.656-11.947 8.013-50.646 29.685-53.007 29.685-.207 0-18.522 8.927-18.733 9.131-.462.446 1.097.845 2.582.661 8.606-1.067 22.921-3.183 32.408-4.791 34.328-5.819 69.774-14.767 102.963-25.993a2882.044 2882.044 0 0 1 12.46-4.193c14.209-4.659 25.767-11.528 32.761-19.472 10.503-11.929 17.788-27.087 29.493-61.36 2.26-6.618 1.65-5.984 11.455-11.906 11.079-6.693 11.402-6.901 13.293-8.577 1.884-1.671 5.044-5.066 7.019-7.542.713-.894 1.727-2.142 2.254-2.773.526-.632 1.657-2.19 2.514-3.464 1.931-2.872 2.355-3.144 6.714-4.305 15.491-4.129 35.09-4.002 58.799.379 11.717 2.166 12.821 1.69 4.021-1.735-11.214-4.364-21.291-6.858-32.08-7.941-1.12-.112-2.62-.282-3.333-.379-.713-.096-3.713-.348-6.667-.561l-7.592-.547a368.77 368.77 0 0 0-6.667-.374c-13.399-.643-19.018-1.602-28.704-4.899-9.344-3.181-17.411-4.175-23.294-2.872" fill="#1a3293"/><path d="M72.222 271.526c-20.04 1.31-31.107 16.447-31.107 42.548 0 29.033 12.14 43.228 36.345 42.499 18.007-.542 31.429-12.359 31.429-27.668v-1.127H91.591l-.399 2.41c-1.414 8.529-6.668 12.322-16.6 11.982-10.435-.357-14.758-6.466-15.726-22.223-1.425-23.189 3.51-33.565 16.154-33.966 10.091-.321 15.383 3.889 16.343 13l.224 2.13h17.581l-.187-1.759c-1.962-18.46-16.117-29.175-36.759-27.826m217.037 0c-20.04 1.31-31.106 16.447-31.106 42.548 0 29.033 12.139 43.228 36.345 42.499 18.006-.542 31.428-12.359 31.428-27.668v-1.127h-17.298l-.399 2.41c-1.414 8.529-6.668 12.322-16.6 11.982-10.435-.357-14.758-6.466-15.726-22.223-1.425-23.189 3.51-33.565 16.154-33.966 10.091-.321 15.384 3.889 16.343 13l.224 2.13h17.581l-.187-1.759c-1.962-18.46-16.117-29.175-36.759-27.826M120 314.074v41.852h17.778v-30.37h13.195l7.754 15.176 7.754 15.176 9.352.009c8.664.008 9.352-.039 9.35-.639 0-.357-4.005-8.213-8.899-17.459-4.894-9.245-8.852-16.845-8.795-16.889.057-.043 1.187-.645 2.511-1.338 14.357-7.508 16.369-31.365 3.461-41.038-7.165-5.369-12.824-6.296-38.554-6.319L120 272.222v41.852m74.815 0v41.852h55.926v-13.704H212.222V320h32.593v-14.074h-32.593v-19.63h38.148v-14.074h-55.555v41.852m142.963 0v41.852h17.778v-83.704h-17.778v41.852m-184.739-27.425c7.766.817 11.22 4.594 11.22 12.266 0 9.481-3.838 12.103-18.24 12.463l-8.241.205v-25.287l6.018.007c3.31.003 7.47.159 9.243.346" fill="#142771"/><path d="M268.519 167.672c-10.655 8.919-26.731 16-53.622 23.618-25.267 7.158-43.648 15.439-50.638 22.812-1.628 1.717-1.416 1.657 1.808-.51 8.228-5.529 25.539-10.334 51.526-14.303 24.65-3.765 39.7-12.758 52.01-31.077 1.989-2.96 1.874-3.017-1.084-.54" fill="#f60"/><path d="M354.727 58.04c.46.088 1.127.085 1.481-.008.354-.092-.023-.165-.838-.161-.814.004-1.104.08-.643.169M58.519 131.865c-3.831.236-8.891 1.377-8.886 2.003.002.232 1.169.433 2.87.494 6.884.246 15.977 2.29 33.144 7.451 38.346 11.527 55.395 12.023 75.372 2.194 6.678-3.286 6.943-3.744 1.522-2.629-10.641 2.188-31.267.519-62.541-5.06-21.475-3.832-32.457-5.011-41.481-4.453m120.284 3.218c.666.083 1.666.081 2.222-.004.557-.084.012-.151-1.21-.149-1.222.002-1.678.071-1.012.153m90.641 31.434c-2.194 1.977-8.243 6.138-11.759 8.087-1.375.762-2.5 1.469-2.5 1.571 0 .689 10.054-5.759 13.664-8.764 2.364-1.967 2.658-2.064 1.664-.546-.329.502-.509.913-.401.913.226 0 1.74-2.375 1.74-2.729 0-.515-.64-.125-2.408 1.468m-2.267 5.232c-3.656 5.124-10.564 11.628-17.92 16.873-.804.574-.815.607-.085.262 4.345-2.057 14.9-12.026 18.914-17.865 1.849-2.69 1.106-2.093-.909.73m-19.399 7.881c-.713.39-1.13.709-.926.709.204 0 .954-.319 1.667-.709.712-.391 1.129-.71.925-.71-.203 0-.953.319-1.666.71m-2.963 1.296c-.509.291-.759.529-.556.529.204 0 .787-.238 1.297-.529.509-.291.759-.529.555-.529-.204 0-.787.238-1.296.529m-6.482 2.606c-.926.446-.957.497-.185.308 1.05-.256 2.229-.857 1.667-.849-.204.003-.871.246-1.482.541m-13.703 4.616c-.467.201-.536.318-.186.318.306 0 .889-.143 1.297-.318.467-.2.535-.318.185-.318-.306 0-.889.143-1.296.318m-3.704 1.111c-.467.201-.535.319-.185.319.305 0 .889-.144 1.296-.319.467-.2.535-.318.185-.318-.305 0-.889.143-1.296.318m-2.593.741c-.467.201-.535.318-.185.318.306 0 .889-.143 1.296-.318.467-.201.536-.318.186-.318-.306 0-.889.143-1.297.318m24.26 2.222c-1.936.998-3.391 1.823-3.234 1.833.394.026 6.937-3.278 6.937-3.503 0-.252.192-.338-3.703 1.67m-29.815-.741c-.467.201-.536.319-.185.319.305 0 .888-.143 1.296-.319.467-.2.535-.318.185-.318-.305 0-.889.143-1.296.318m24.074 3.36c-.815.392-1.065.609-.556.482 1.049-.261 2.974-1.226 2.408-1.207-.204.007-1.037.334-1.852.725m-41.482 2.394c-.926.446-.957.498-.185.309 1.05-.256 2.229-.858 1.667-.849-.204.003-.871.246-1.482.54m34.815-.198c-.467.201-.535.318-.185.318.306 0 .889-.143 1.296-.318.467-.201.536-.318.185-.318-.305 0-.888.143-1.296.318m-7.87 1.737c.356.093.94.093 1.296 0 .357-.093.065-.17-.648-.17-.713 0-1.005.077-.648.17m-5.185.741c.356.093.939.093 1.296 0 .356-.094.065-.17-.648-.17-.713 0-1.005.076-.648.17m-4.815.74c.356.093.94.093 1.296 0 .357-.093.065-.169-.648-.169-.713 0-1.005.076-.648.169m-2.593.371c.357.093.94.093 1.297 0 .356-.093.064-.17-.649-.17-.713 0-1.004.077-.648.17m-27.129 1.596c-.713.391-1.13.71-.926.71.203 0 .953-.319 1.666-.71.713-.39 1.13-.709.926-.709-.203 0-.953.319-1.666.709m9.629 1.852c-.744.238-.78.299-.185.307.407.006 1.074-.132 1.482-.307.943-.405-.03-.405-1.297 0m-17.129 1.877c-.764.403-1.389.816-1.389.917 0 .101.666-.156 1.481-.572.815-.415 1.482-.835 1.482-.933 0-.242-.003-.241-1.574.588m11.388-.395c-.466.2-.535.318-.185.318.306 0 .889-.143 1.297-.318.466-.201.535-.319.185-.319-.306 0-.889.143-1.297.319m-2.592.74c-.467.201-.535.319-.185.319.305 0 .889-.144 1.296-.319.467-.2.535-.318.185-.318-.305 0-.889.143-1.296.318m-2.593.741c-.467.201-.535.318-.185.318.306 0 .889-.143 1.296-.318.467-.201.536-.318.186-.318-.306 0-.889.143-1.297.318m-10.555 3.889c-.51.291-.76.529-.556.529.204 0 .787-.238 1.296-.529.51-.291.76-.529.556-.529-.204 0-.787.238-1.296.529m-6.493 2.811c-1.527 1.558-1.982 2.216-1.47 2.125.407-.072.657-.248.555-.39-.102-.142.642-1.098 1.653-2.125 1.011-1.026 1.756-1.866 1.655-1.866-.1 0-1.177 1.016-2.393 2.256m2.968-.907c-1.89 1.253-2.556 1.914-1.08 1.072 1.299-.741 3.032-2.03 2.746-2.042-.105-.004-.855.432-1.666.97m-39.458 5.966l-1.277 1.389 1.389-1.276c1.293-1.188 1.56-1.502 1.277-1.502-.062 0-.687.625-1.389 1.389m-34.883 2.947c.46.089 1.127.086 1.481-.007.354-.093-.023-.165-.837-.161-.815.004-1.105.08-.644.168m-5.19.37a5.237 5.237 0 0 0 1.667 0c.458-.088.083-.16-.833-.16-.917 0-1.292.072-.834.16m-4.815.371a5.296 5.296 0 0 0 1.667 0c.458-.089.083-.161-.833-.161-.917 0-1.292.072-.834.161m-5.185.37a5.296 5.296 0 0 0 1.667 0c.458-.088.083-.161-.833-.161-.917 0-1.292.073-.834.161m-4.44.371c.461.089 1.127.085 1.482-.008.354-.092-.023-.165-.838-.161-.815.004-1.105.08-.644.169m-5.56.37a5.296 5.296 0 0 0 1.667 0c.458-.089.083-.161-.833-.161-.917 0-1.292.072-.834.161m-4.629.364c.356.093.939.093 1.296 0 .356-.093.065-.169-.648-.169-.713 0-1.005.076-.648.169m-5.371.376a5.237 5.237 0 0 0 1.667 0c.458-.088.083-.16-.833-.16-.917 0-1.292.072-.834.16m-47.136 20.202l-3.697 3.796 3.796-3.696c3.526-3.434 3.965-3.896 3.697-3.896-.055 0-1.763 1.708-3.796 3.796M.873 256.753c-.384.62.252.799.82.231.506-.505.503-.564-.025-.564-.324 0-.682.15-.795.333" fill="#f0047f"/><path d="M124.815 216.527c-11.624 3.127-22.249 4.533-50 6.617-29.937 2.248-36.337 3.474-47.482 9.093-8.648 4.361-18.641 13.118-23.775 20.835-2.676 4.023-2.577 4.147 1.072 1.349 12.314-9.442 31.313-14.984 62.12-18.119 30.399-3.094 46.419-7.285 58.065-15.192 3.14-2.131 6.498-6.153 4.907-5.877-.153.027-2.361.609-4.907 1.294" fill="#99cf16"/></g></svg>